<?xml version="1.0" encoding="UTF-8"?>
<!DOCTYPE svg PUBLIC "-//W3C//DTD SVG 1.1//EN" "http://www.w3.org/Graphics/SVG/1.1/DTD/svg11.dtd">
<svg xmlns="http://www.w3.org/2000/svg" version="1.1" width="345px" height="89px" style="shape-rendering:geometricPrecision; text-rendering:geometricPrecision; image-rendering:optimizeQuality; fill-rule:evenodd; clip-rule:evenodd" xmlns:xlink="http://www.w3.org/1999/xlink">
<g><path style="opacity:0.109" fill="#fefffe" d="M 115.5,10.5 C 138.836,10.3334 162.169,10.5 185.5,11C 162.334,12.4841 139.168,12.9841 116,12.5C 115.536,11.9056 115.369,11.2389 115.5,10.5 Z"/></g>
<g><path style="opacity:0.052" fill="#fefffe" d="M 115.5,16.5 C 117.746,17.2096 120.08,17.7096 122.5,18C 137.26,18.0326 151.926,18.6992 166.5,20C 165.4,21.023 164.067,21.523 162.5,21.5C 150.639,19.3493 138.805,19.3493 127,21.5C 123.208,20.6898 119.375,20.3564 115.5,20.5C 115.5,19.1667 115.5,17.8333 115.5,16.5 Z"/></g>
<g><path style="opacity:0.004" fill="#fefffe" d="M 183.5,20.5 C 183.897,19.475 184.563,19.3083 185.5,20C 184.906,20.4643 184.239,20.631 183.5,20.5 Z"/></g>
<g><path style="opacity:0.004" fill="#fefffe" d="M 156.5,24.5 C 156.897,23.475 157.563,23.3083 158.5,24C 157.906,24.4643 157.239,24.631 156.5,24.5 Z"/></g>
<g><path style="opacity:0.004" fill="#fefffe" d="M 160.5,23.5 C 161.833,24.1667 161.833,24.1667 160.5,23.5 Z"/></g>
<g><path style="opacity:0.007" fill="#f9f9f9" d="M 167.5,24.5 C 172.015,23.1876 176.682,23.1876 181.5,24.5C 176.833,25.6514 172.166,25.6514 167.5,24.5 Z"/></g>
<g><path style="opacity:0.064" fill="#a2a2a2" d="M 146.5,25.5 C 143.5,25.5 140.5,25.5 137.5,25.5C 136.391,24.71 135.058,24.21 133.5,24C 138.833,23.3333 144.167,23.3333 149.5,24C 148.263,24.2321 147.263,24.7321 146.5,25.5 Z"/></g>
<g><path style="opacity:0.582" fill="#000000" d="M 195.5,27.5 C 198.833,27.5 202.167,27.5 205.5,27.5C 205.335,31.1817 205.501,34.8484 206,38.5C 205.518,28.4457 209.685,25.4457 218.5,29.5C 219.23,32.1092 219.73,34.7759 220,37.5C 220.498,34.1832 220.665,30.8499 220.5,27.5C 225.118,26.3087 227.618,27.9754 228,32.5C 228.749,28.3971 231.249,26.7304 235.5,27.5C 235.5,32.5 235.5,37.5 235.5,42.5C 234.167,42.5 232.833,42.5 231.5,42.5C 231.653,36.6761 230.987,36.3428 229.5,41.5C 227.694,42.8587 226.194,42.5254 225,40.5C 221.868,43.4563 219.868,42.7896 219,38.5C 215.74,43.2852 212.073,43.6185 208,39.5C 207.505,41.4727 207.338,43.4727 207.5,45.5C 206.167,45.5 204.833,45.5 203.5,45.5C 203.5,44.5 203.5,43.5 203.5,42.5C 201.5,42.5 199.5,42.5 197.5,42.5C 197.5,43.5 197.5,44.5 197.5,45.5C 194.07,46.2447 192.403,44.9114 192.5,41.5C 195.091,37.2358 196.091,32.5692 195.5,27.5 Z M 200.5,31.5 C 201.793,33.3635 201.793,35.3635 200.5,37.5C 200.254,35.7805 200.254,33.7805 200.5,31.5 Z M 211.5,31.5 C 215.068,31.7593 216.401,33.7593 215.5,37.5C 211.145,37.4505 209.812,35.4505 211.5,31.5 Z"/></g>
<g><path style="opacity:0.678" fill="#5b5c60" d="M 125.5,37.5 C 126.885,38.3023 126.718,38.9689 125,39.5C 123.527,39.9031 122.194,40.5697 121,41.5C 120.601,41.2716 120.435,40.9382 120.5,40.5C 122.072,39.3127 123.739,38.3127 125.5,37.5 Z"/></g>
<g><path style="opacity:0.562" fill="#000000" d="M 238.5,44.5 C 242.831,43.4511 244.997,45.1178 245,49.5C 246.269,48.0953 246.769,46.4286 246.5,44.5C 248.5,44.5 250.5,44.5 252.5,44.5C 252.337,46.8568 252.503,49.1902 253,51.5C 253.236,49.236 253.736,47.0693 254.5,45C 257.482,44.502 260.482,44.3354 263.5,44.5C 263.657,45.8734 263.49,47.2068 263,48.5C 261.348,49.217 259.848,49.5504 258.5,49.5C 260.045,50.4519 261.712,50.7852 263.5,50.5C 263.5,51.8333 263.5,53.1667 263.5,54.5C 256.833,54.8333 256.833,55.1667 263.5,55.5C 263.5,56.8333 263.5,58.1667 263.5,59.5C 259.97,60.0111 256.804,59.3444 254,57.5C 252.599,59.1922 250.766,59.8588 248.5,59.5C 248.167,54.1667 247.833,54.1667 247.5,59.5C 244.167,58.1667 240.833,58.1667 237.5,59.5C 237.916,54.5068 238.249,49.5068 238.5,44.5 Z"/></g>
<g><path style="opacity:0.651" fill="#000000" d="M 264.5,44.5 C 267.5,44.5 270.5,44.5 273.5,44.5C 273.785,46.288 273.452,47.9547 272.5,49.5C 271.109,48.3554 269.776,48.3554 268.5,49.5C 274.022,49.5988 275.856,52.2655 274,57.5C 271.174,59.3398 268.007,60.0065 264.5,59.5C 264.5,54.5 264.5,49.5 264.5,44.5 Z M 268.5,53.5 C 270.973,53.9473 271.14,54.9473 269,56.5C 268.517,55.552 268.351,54.552 268.5,53.5 Z"/></g>
<g><path style="opacity:0.591" fill="#000000" d="M 275.5,44.5 C 278.833,44.5 282.167,44.5 285.5,44.5C 285.657,45.8734 285.49,47.2068 285,48.5C 283.348,49.217 281.848,49.5504 280.5,49.5C 283.785,49.6981 285.452,51.3648 285.5,54.5C 283.473,54.3379 281.473,54.5045 279.5,55C 281.902,55.8141 284.235,55.6474 286.5,54.5C 287.417,51.2423 287.751,47.909 287.5,44.5C 290.5,44.5 293.5,44.5 296.5,44.5C 296.5,49.5 296.5,54.5 296.5,59.5C 295.167,59.5 293.833,59.5 292.5,59.5C 292.665,55.8183 292.499,52.1516 292,48.5C 291.974,52.1083 291.141,55.4417 289.5,58.5C 284.9,59.4435 280.233,59.7768 275.5,59.5C 275.5,54.5 275.5,49.5 275.5,44.5 Z"/></g>
<g><path style="opacity:0.634" fill="#000000" d="M 297.5,44.5 C 298.833,44.5 300.167,44.5 301.5,44.5C 301.082,51.8605 302.082,52.1939 304.5,45.5C 305.689,44.5713 307.022,44.238 308.5,44.5C 308.5,49.5 308.5,54.5 308.5,59.5C 307.167,59.5 305.833,59.5 304.5,59.5C 304.674,54.9786 304.007,54.6452 302.5,58.5C 300.955,59.4519 299.288,59.7852 297.5,59.5C 297.5,54.5 297.5,49.5 297.5,44.5 Z"/></g>
<g><path style="opacity:0.493" fill="#050506" d="M 137.5,25.5 C 140.5,25.5 143.5,25.5 146.5,25.5C 147.492,25.3284 148.158,25.6618 148.5,26.5C 148.167,27.8333 147.833,29.1667 147.5,30.5C 141.907,30.8066 136.407,30.4732 131,29.5C 130.501,35.4908 130.334,41.4908 130.5,47.5C 128.883,48.038 127.216,48.3713 125.5,48.5C 125.799,46.396 125.466,44.396 124.5,42.5C 124.167,42.6667 123.833,42.8333 123.5,43C 124.833,47.6667 124.833,52.3333 123.5,57C 140.83,57.4999 158.163,57.6666 175.5,57.5C 175.666,52.4889 175.499,47.4889 175,42.5C 174.503,45.146 174.336,47.8127 174.5,50.5C 174.167,50.5 173.833,50.5 173.5,50.5C 173.5,49.1667 172.833,48.5 171.5,48.5C 171.5,47.8333 171.167,47.5 170.5,47.5C 170.5,41.8333 170.5,36.1667 170.5,30.5C 164.833,30.5 159.167,30.5 153.5,30.5C 153.167,29.1667 152.833,27.8333 152.5,26.5C 157.985,25.3483 163.651,25.1816 169.5,26C 174.655,28.1457 176.322,31.8124 174.5,37C 176.624,38.1217 178.457,39.6217 180,41.5C 180.667,47.1667 180.667,52.8333 180,58.5C 178.786,60.0488 177.286,61.2155 175.5,62C 157.76,62.8185 140.093,62.6518 122.5,61.5C 122.573,59.9731 121.906,58.9731 120.5,58.5C 119.167,52.5 119.167,46.5 120.5,40.5C 120.435,40.9382 120.601,41.2716 121,41.5C 122.194,40.5697 123.527,39.9031 125,39.5C 126.718,38.9689 126.885,38.3023 125.5,37.5C 124.447,28.5524 128.447,24.5524 137.5,25.5 Z M 125.5,48.5 C 125.833,49.1667 126.167,49.8333 126.5,50.5C 126.611,51.1174 126.944,51.6174 127.5,52C 142.5,52.6667 157.5,52.6667 172.5,52C 173.416,51.7216 174.082,51.2216 174.5,50.5C 174.336,47.8127 174.503,45.146 175,42.5C 175.499,47.4889 175.666,52.4889 175.5,57.5C 158.163,57.6666 140.83,57.4999 123.5,57C 124.833,52.3333 124.833,47.6667 123.5,43C 123.833,42.8333 124.167,42.6667 124.5,42.5C 125.466,44.396 125.799,46.396 125.5,48.5 Z M 152.5,30.5 C 152.833,30.5 153.167,30.5 153.5,30.5C 159.167,30.5 164.833,30.5 170.5,30.5C 170.5,36.1667 170.5,41.8333 170.5,47.5C 164.591,48.4553 158.591,48.7886 152.5,48.5C 152.5,42.5 152.5,36.5 152.5,30.5 Z M 147.5,30.5 C 147.833,30.5 148.167,30.5 148.5,30.5C 148.789,36.5907 148.455,42.5907 147.5,48.5C 141.642,48.8222 135.975,48.4889 130.5,47.5C 130.334,41.4908 130.501,35.4908 131,29.5C 136.407,30.4732 141.907,30.8066 147.5,30.5 Z"/></g>
<g><path style="opacity:0.921" fill="#242528" d="M 148.5,26.5 C 149.702,27.4054 151.036,27.4054 152.5,26.5C 152.833,27.8333 153.167,29.1667 153.5,30.5C 153.167,30.5 152.833,30.5 152.5,30.5C 152.19,29.2617 151.69,29.2617 151,30.5C 150.333,36.1667 150.333,41.8333 151,47.5C 151.383,48.056 151.883,48.3893 152.5,48.5C 158.734,49.8073 165.068,49.8073 171.5,48.5C 172.833,48.5 173.5,49.1667 173.5,50.5C 157.833,50.5 142.167,50.5 126.5,50.5C 126.167,49.8333 125.833,49.1667 125.5,48.5C 127.216,48.3713 128.883,48.038 130.5,47.5C 135.975,48.4889 141.642,48.8222 147.5,48.5C 148.816,45.9134 149.483,42.9134 149.5,39.5C 149.498,36.3138 149.165,33.3138 148.5,30.5C 148.167,30.5 147.833,30.5 147.5,30.5C 147.833,29.1667 148.167,27.8333 148.5,26.5 Z"/></g>
<g><path style="opacity:0.027" fill="#909196" d="M 126.5,50.5 C 142.167,50.5 157.833,50.5 173.5,50.5C 173.833,50.5 174.167,50.5 174.5,50.5C 174.082,51.2216 173.416,51.7216 172.5,52C 157.5,52.6667 142.5,52.6667 127.5,52C 126.944,51.6174 126.611,51.1174 126.5,50.5 Z"/></g>
<g><path style="opacity:0.338" fill="#73767a" d="M 170.5,47.5 C 171.167,47.5 171.5,47.8333 171.5,48.5C 165.068,49.8073 158.734,49.8073 152.5,48.5C 158.591,48.7886 164.591,48.4553 170.5,47.5 Z"/></g>
<g><path style="opacity:0.043" fill="#8b8c8f" d="M 152.5,30.5 C 152.5,36.5 152.5,42.5 152.5,48.5C 151.883,48.3893 151.383,48.056 151,47.5C 150.333,41.8333 150.333,36.1667 151,30.5C 151.69,29.2617 152.19,29.2617 152.5,30.5 Z"/></g>
<g><path style="opacity:0.287" fill="#7d8087" d="M 148.5,30.5 C 149.165,33.3138 149.498,36.3138 149.5,39.5C 149.483,42.9134 148.816,45.9134 147.5,48.5C 148.455,42.5907 148.789,36.5907 148.5,30.5 Z"/></g>
<g><path style="opacity:0.051" fill="#696a6d" d="M 120.5,58.5 C 121.906,58.9731 122.573,59.9731 122.5,61.5C 121.094,61.0269 120.427,60.0269 120.5,58.5 Z"/></g>
<g><path style="opacity:0.089" fill="#fefffe" d="M 119.5,64.5 C 130.853,64.1678 142.186,64.5012 153.5,65.5C 147.833,65.8333 142.167,66.1667 136.5,66.5C 130.458,66.4955 124.792,65.8288 119.5,64.5 Z"/></g>
<g><path style="opacity:0.015" fill="#fefffe" d="M 115.5,69.5 C 117.429,69.2308 119.095,69.7308 120.5,71C 118.202,72.8582 116.535,72.3582 115.5,69.5 Z"/></g>
<g><path style="opacity:0.085" fill="#fefffe" d="M 182.5,76.5 C 183.5,76.5 184.5,76.5 185.5,76.5C 185.5,77.5 185.5,78.5 185.5,79.5C 162.157,79.8331 138.824,79.4997 115.5,78.5C 137.996,77.8333 160.33,77.1667 182.5,76.5 Z"/></g>
</svg>
