<?xml version="1.0" encoding="UTF-8"?>
<!DOCTYPE svg PUBLIC "-//W3C//DTD SVG 1.1//EN" "http://www.w3.org/Graphics/SVG/1.1/DTD/svg11.dtd">
<svg xmlns="http://www.w3.org/2000/svg" version="1.1" width="217px" height="56px" style="shape-rendering:geometricPrecision; text-rendering:geometricPrecision; image-rendering:optimizeQuality; fill-rule:evenodd; clip-rule:evenodd" xmlns:xlink="http://www.w3.org/1999/xlink">
<g><path style="opacity:0.032" fill="#fefffe" d="M 27.5,-0.5 C 30.8333,-0.5 34.1667,-0.5 37.5,-0.5C 34.1667,0.833333 30.8333,0.833333 27.5,-0.5 Z"/></g>
<g><path style="opacity:0.095" fill="#fefefe" d="M 40.5,13.5 C 39.5,13.5 38.5,13.5 37.5,13.5C 35.4727,13.6621 33.4727,13.4955 31.5,13C 34.095,12.7744 36.595,12.2744 39,11.5C 41.405,12.2744 43.905,12.7744 46.5,13C 44.5273,13.4955 42.5273,13.6621 40.5,13.5 Z"/></g>
<g><path style="opacity:0.004" fill="#fefffd" d="M 54.5,12.5 C 55.8333,13.1667 55.8333,13.1667 54.5,12.5 Z"/></g>
<g><path style="opacity:0.004" fill="#fefffd" d="M 57.5,12.5 C 58.8333,13.1667 58.8333,13.1667 57.5,12.5 Z"/></g>
<g><path style="opacity:0.01" fill="#fefffe" d="M 64.5,13.5 C 68.9811,12.3516 73.6478,12.1849 78.5,13C 73.8452,13.4992 69.1785,13.6658 64.5,13.5 Z"/></g>
<g><path style="opacity:0.824" fill="#000000" d="M 92.5,16.5 C 95.1667,16.5 97.8333,16.5 100.5,16.5C 100.252,22.0441 100.919,27.3774 102.5,32.5C 101.5,32.5 100.5,32.5 99.5,32.5C 99.5,31.5 99.5,30.5 99.5,29.5C 97.1667,29.5 94.8333,29.5 92.5,29.5C 92.5,30.5 92.5,31.5 92.5,32.5C 91.5,32.5 90.5,32.5 89.5,32.5C 91.6507,27.4766 92.6507,22.1432 92.5,16.5 Z M 95.5,19.5 C 96.7251,20.1522 97.3917,21.3189 97.5,23C 97.1667,24.1667 96.8333,25.3333 96.5,26.5C 95.5258,24.2573 95.1924,21.924 95.5,19.5 Z"/></g>
<g><path style="opacity:0.733" fill="#000000" d="M 105.5,16.5 C 114.008,15.5235 116.842,19.1902 114,27.5C 105.406,31.6994 101.739,29.0327 103,19.5C 103.698,18.3094 104.531,17.3094 105.5,16.5 Z M 106.5,19.5 C 110.841,19.5186 112.175,21.5186 110.5,25.5C 109.311,26.4287 107.978,26.762 106.5,26.5C 105.167,24.1667 105.167,21.8333 106.5,19.5 Z"/></g>
<g><path style="opacity:0.767" fill="#000000" d="M 116.5,16.5 C 118.167,16.5 119.833,16.5 121.5,16.5C 122.106,23.5209 123.106,23.8542 124.5,17.5C 126.045,16.5481 127.712,16.2148 129.5,16.5C 129.5,20.8333 129.5,25.1667 129.5,29.5C 128.5,29.5 127.5,29.5 126.5,29.5C 126.466,20.2756 125.8,20.2756 124.5,29.5C 123.167,29.5 121.833,29.5 120.5,29.5C 120.549,24.4612 119.882,24.2945 118.5,29C 117.552,29.4828 116.552,29.6495 115.5,29.5C 115.927,25.1756 116.261,20.8422 116.5,16.5 Z"/></g>
<g><path style="opacity:0.521" fill="#0b0b0d" d="M 37.5,13.5 C 38.5,13.5 39.5,13.5 40.5,13.5C 42.8333,14.1667 45.1667,14.8333 47.5,15.5C 46.5987,16.2905 45.9321,17.2905 45.5,18.5C 39.8333,18.5 34.1667,18.5 28.5,18.5C 28.5,24.5 28.5,30.5 28.5,36.5C 31.3138,37.1647 34.3138,37.498 37.5,37.5C 40.9134,37.483 43.9134,36.8164 46.5,35.5C 47.3272,30.0149 47.8272,24.3482 48,18.5C 48.1728,24.3482 48.6728,30.0149 49.5,35.5C 54.7351,37.45 60.4018,38.1167 66.5,37.5C 54.8723,38.5065 41.2056,38.8398 25.5,38.5C 24.834,35.6417 24.1674,32.6417 23.5,29.5C 22.5052,34.7921 22.1718,40.1254 22.5,45.5C 22.7148,47.1788 22.0481,48.1788 20.5,48.5C 18.2717,42.0871 17.9384,35.4204 19.5,28.5C 20.8333,27.8333 22.1667,27.1667 23.5,26.5C 23.8857,22.3605 25.219,18.6938 27.5,15.5C 30.9773,14.8328 34.3107,14.1661 37.5,13.5 Z M 45.5,18.5 C 46.4889,23.9753 46.8222,29.642 46.5,35.5C 40.5907,36.4553 34.5907,36.7886 28.5,36.5C 28.5,30.5 28.5,24.5 28.5,18.5C 34.1667,18.5 39.8333,18.5 45.5,18.5 Z"/></g>
<g><path style="opacity:0.595" fill="#262728" d="M 73.5,48.5 C 72.596,47.791 72.2627,46.791 72.5,45.5C 72.6659,40.4889 72.4993,35.4889 72,30.5C 71.7305,33.2241 71.2305,35.8908 70.5,38.5C 55.3386,39.8262 40.3386,39.8262 25.5,38.5C 41.2056,38.8398 54.8723,38.5065 66.5,37.5C 66.5,37.1667 66.5,36.8333 66.5,36.5C 67.4896,30.69 67.8229,24.69 67.5,18.5C 61.5,18.5 55.5,18.5 49.5,18.5C 49.5,24.1667 49.5,29.8333 49.5,35.5C 48.6728,30.0149 48.1728,24.3482 48,18.5C 47.8272,24.3482 47.3272,30.0149 46.5,35.5C 46.8222,29.642 46.4889,23.9753 45.5,18.5C 45.9321,17.2905 46.5987,16.2905 47.5,15.5C 54.059,14.3198 61.059,14.3198 68.5,15.5C 71.0864,18.6145 72.0864,22.2811 71.5,26.5C 73.143,26.4802 74.4763,27.1468 75.5,28.5C 76.8333,34.8333 76.8333,41.1667 75.5,47.5C 74.8165,47.8627 74.1499,48.1961 73.5,48.5 Z"/></g>
<g><path style="opacity:0.767" fill="#000000" d="M 133.5,33.5 C 135.167,33.5 136.833,33.5 138.5,33.5C 139.106,40.5209 140.106,40.8542 141.5,34.5C 143.045,33.5481 144.712,33.2148 146.5,33.5C 146.5,37.8333 146.5,42.1667 146.5,46.5C 145.5,46.5 144.5,46.5 143.5,46.5C 143.466,37.2756 142.8,37.2756 141.5,46.5C 140.167,46.5 138.833,46.5 137.5,46.5C 137.549,41.4612 136.882,41.2945 135.5,46C 134.552,46.4828 133.552,46.6495 132.5,46.5C 132.927,42.1756 133.261,37.8422 133.5,33.5 Z"/></g>
<g><path style="opacity:0.806" fill="#000000" d="M 148.5,33.5 C 151.167,33.5 153.833,33.5 156.5,33.5C 156.5,34.5 156.5,35.5 156.5,36.5C 149.833,37.1667 149.833,37.8333 156.5,38.5C 156.5,39.5 156.5,40.5 156.5,41.5C 149.833,42.1667 149.833,42.8333 156.5,43.5C 156.5,44.5 156.5,45.5 156.5,46.5C 153.833,46.5 151.167,46.5 148.5,46.5C 148.5,42.1667 148.5,37.8333 148.5,33.5 Z"/></g>
<g><path style="opacity:0.837" fill="#000000" d="M 158.5,33.5 C 161.167,33.5 163.833,33.5 166.5,33.5C 166.5,34.5 166.5,35.5 166.5,36.5C 164.712,36.2148 163.045,36.5481 161.5,37.5C 167.022,37.5988 168.856,40.2655 167,45.5C 164.281,46.4438 161.448,46.7771 158.5,46.5C 158.5,42.1667 158.5,37.8333 158.5,33.5 Z M 161.5,40.5 C 165.094,41.5615 165.26,42.8948 162,44.5C 161.51,43.2068 161.343,41.8734 161.5,40.5 Z"/></g>
<g><path style="opacity:0.837" fill="#000000" d="M 169.5,33.5 C 172.167,33.5 174.833,33.5 177.5,33.5C 177.5,34.5 177.5,35.5 177.5,36.5C 170.833,37.1667 170.833,37.8333 177.5,38.5C 177.5,39.5 177.5,40.5 177.5,41.5C 175.712,41.2148 174.045,41.5481 172.5,42.5C 174.833,43.8333 177.167,43.8333 179.5,42.5C 180.407,39.5788 180.74,36.5788 180.5,33.5C 183.167,33.5 185.833,33.5 188.5,33.5C 188.5,37.8333 188.5,42.1667 188.5,46.5C 187.5,46.5 186.5,46.5 185.5,46.5C 185.82,43.1016 185.487,39.7683 184.5,36.5C 183.911,39.8369 182.911,43.0035 181.5,46C 177.69,46.127 173.69,46.2936 169.5,46.5C 169.5,42.1667 169.5,37.8333 169.5,33.5 Z"/></g>
<g><path style="opacity:0.813" fill="#000000" d="M 190.5,33.5 C 191.5,33.5 192.5,33.5 193.5,33.5C 193.082,40.8605 194.082,41.1939 196.5,34.5C 197.689,33.5713 199.022,33.238 200.5,33.5C 200.5,37.8333 200.5,42.1667 200.5,46.5C 199.5,46.5 198.5,46.5 197.5,46.5C 197.899,40.3588 196.899,40.0254 194.5,45.5C 193.311,46.4287 191.978,46.762 190.5,46.5C 190.5,42.1667 190.5,37.8333 190.5,33.5 Z"/></g>
<g><path style="opacity:0.383" fill="#76787d" d="M 46.5,35.5 C 43.9134,36.8164 40.9134,37.483 37.5,37.5C 34.3138,37.498 31.3138,37.1647 28.5,36.5C 34.5907,36.7886 40.5907,36.4553 46.5,35.5 Z"/></g>
<g><path style="opacity:0.384" fill="#7b7d81" d="M 49.5,35.5 C 55.0748,36.4524 60.7414,36.7857 66.5,36.5C 66.5,36.8333 66.5,37.1667 66.5,37.5C 60.4018,38.1167 54.7351,37.45 49.5,35.5 Z"/></g>
<g><path style="opacity:0.542" fill="#010102" d="M 22.5,45.5 C 39.1667,45.5 55.8333,45.5 72.5,45.5C 72.2627,46.791 72.596,47.791 73.5,48.5C 55.8333,49.8333 38.1667,49.8333 20.5,48.5C 22.0481,48.1788 22.7148,47.1788 22.5,45.5 Z"/></g>
</svg>
