<?xml version="1.0" encoding="UTF-8"?>
<!DOCTYPE svg PUBLIC "-//W3C//DTD SVG 1.1//EN" "http://www.w3.org/Graphics/SVG/1.1/DTD/svg11.dtd">
<svg xmlns="http://www.w3.org/2000/svg" version="1.1" width="237px" height="39px" style="shape-rendering:geometricPrecision; text-rendering:geometricPrecision; image-rendering:optimizeQuality; fill-rule:evenodd; clip-rule:evenodd" xmlns:xlink="http://www.w3.org/1999/xlink">
<g><path style="opacity:0.095" fill="#fefefe" d="M 51.5,2.5 C 50.5,2.5 49.5,2.5 48.5,2.5C 40.8245,2.54385 40.6578,1.87718 48,0.5C 50.8251,1.05161 53.9918,1.55161 57.5,2C 55.5273,2.49546 53.5273,2.66212 51.5,2.5 Z"/></g>
<g><path style="opacity:0.004" fill="#fefffd" d="M 65.5,1.5 C 66.8333,2.16667 66.8333,2.16667 65.5,1.5 Z"/></g>
<g><path style="opacity:0.004" fill="#fefffd" d="M 68.5,1.5 C 69.8333,2.16667 69.8333,2.16667 68.5,1.5 Z"/></g>
<g><path style="opacity:0.01" fill="#fefffe" d="M 75.5,2.5 C 79.9811,1.35159 84.6478,1.18492 89.5,2C 84.8452,2.49915 80.1785,2.66582 75.5,2.5 Z"/></g>
<g><path style="opacity:0.824" fill="#000000" d="M 103.5,5.5 C 106.167,5.5 108.833,5.5 111.5,5.5C 111.252,11.0441 111.919,16.3774 113.5,21.5C 112.5,21.5 111.5,21.5 110.5,21.5C 110.5,20.5 110.5,19.5 110.5,18.5C 108.167,18.5 105.833,18.5 103.5,18.5C 103.5,19.5 103.5,20.5 103.5,21.5C 102.5,21.5 101.5,21.5 100.5,21.5C 102.651,16.4766 103.651,11.1432 103.5,5.5 Z M 106.5,8.5 C 107.725,9.1522 108.392,10.3189 108.5,12C 108.167,13.1667 107.833,14.3333 107.5,15.5C 106.526,13.2573 106.192,10.924 106.5,8.5 Z"/></g>
<g><path style="opacity:0.733" fill="#000000" d="M 116.5,5.5 C 125.008,4.52349 127.842,8.19016 125,16.5C 116.406,20.6994 112.739,18.0327 114,8.5C 114.698,7.30943 115.531,6.30943 116.5,5.5 Z M 117.5,8.5 C 121.841,8.51858 123.175,10.5186 121.5,14.5C 120.311,15.4287 118.978,15.762 117.5,15.5C 116.167,13.1667 116.167,10.8333 117.5,8.5 Z"/></g>
<g><path style="opacity:0.767" fill="#000000" d="M 127.5,5.5 C 129.167,5.5 130.833,5.5 132.5,5.5C 133.106,12.5209 134.106,12.8542 135.5,6.5C 137.045,5.54811 138.712,5.21478 140.5,5.5C 140.5,9.83333 140.5,14.1667 140.5,18.5C 139.5,18.5 138.5,18.5 137.5,18.5C 137.466,9.27556 136.8,9.27556 135.5,18.5C 134.167,18.5 132.833,18.5 131.5,18.5C 131.549,13.4612 130.882,13.2945 129.5,18C 128.552,18.4828 127.552,18.6495 126.5,18.5C 126.927,14.1756 127.261,9.84223 127.5,5.5 Z"/></g>
<g><path style="opacity:0.521" fill="#0b0b0d" d="M 48.5,2.5 C 49.5,2.5 50.5,2.5 51.5,2.5C 53.8333,3.16667 56.1667,3.83333 58.5,4.5C 57.5987,5.29049 56.9321,6.29049 56.5,7.5C 50.8333,7.5 45.1667,7.5 39.5,7.5C 39.5,13.5 39.5,19.5 39.5,25.5C 42.3138,26.1647 45.3138,26.498 48.5,26.5C 51.9134,26.483 54.9134,25.8164 57.5,24.5C 58.3272,19.0149 58.8272,13.3482 59,7.5C 59.1728,13.3482 59.6728,19.0149 60.5,24.5C 65.7351,26.45 71.4018,27.1167 77.5,26.5C 65.8723,27.5065 52.2056,27.8398 36.5,27.5C 35.834,24.6417 35.1674,21.6417 34.5,18.5C 33.5052,23.7921 33.1718,29.1254 33.5,34.5C 33.7148,36.1788 33.0481,37.1788 31.5,37.5C 29.2717,31.0871 28.9384,24.4204 30.5,17.5C 31.8333,16.8333 33.1667,16.1667 34.5,15.5C 34.8857,11.3605 36.219,7.69382 38.5,4.5C 41.9773,3.8328 45.3107,3.16613 48.5,2.5 Z M 56.5,7.5 C 57.4889,12.9753 57.8222,18.642 57.5,24.5C 51.5907,25.4553 45.5907,25.7886 39.5,25.5C 39.5,19.5 39.5,13.5 39.5,7.5C 45.1667,7.5 50.8333,7.5 56.5,7.5 Z"/></g>
<g><path style="opacity:0.595" fill="#262728" d="M 85.5,37.5 C 83.9519,37.1788 83.2852,36.1788 83.5,34.5C 83.6659,29.4889 83.4993,24.4889 83,19.5C 82.7305,22.2241 82.2305,24.8908 81.5,27.5C 66.3386,28.8262 51.3386,28.8262 36.5,27.5C 52.2056,27.8398 65.8723,27.5065 77.5,26.5C 77.5,26.1667 77.5,25.8333 77.5,25.5C 78.4896,19.69 78.8229,13.69 78.5,7.5C 72.5,7.5 66.5,7.5 60.5,7.5C 60.5,13.1667 60.5,18.8333 60.5,24.5C 59.6728,19.0149 59.1728,13.3482 59,7.5C 58.8272,13.3482 58.3272,19.0149 57.5,24.5C 57.8222,18.642 57.4889,12.9753 56.5,7.5C 56.9321,6.29049 57.5987,5.29049 58.5,4.5C 65.059,3.31977 72.059,3.31977 79.5,4.5C 82.0864,7.61447 83.0864,11.2811 82.5,15.5C 84.143,15.4802 85.4763,16.1468 86.5,17.5C 88.0616,24.4204 87.7283,31.0871 85.5,37.5 Z"/></g>
<g><path style="opacity:0.767" fill="#000000" d="M 144.5,22.5 C 146.167,22.5 147.833,22.5 149.5,22.5C 150.106,29.5209 151.106,29.8542 152.5,23.5C 154.045,22.5481 155.712,22.2148 157.5,22.5C 157.5,26.8333 157.5,31.1667 157.5,35.5C 156.5,35.5 155.5,35.5 154.5,35.5C 154.466,26.2756 153.8,26.2756 152.5,35.5C 151.167,35.5 149.833,35.5 148.5,35.5C 148.549,30.4612 147.882,30.2945 146.5,35C 145.552,35.4828 144.552,35.6495 143.5,35.5C 143.927,31.1756 144.261,26.8422 144.5,22.5 Z"/></g>
<g><path style="opacity:0.806" fill="#000000" d="M 159.5,22.5 C 162.167,22.5 164.833,22.5 167.5,22.5C 167.5,23.5 167.5,24.5 167.5,25.5C 160.833,26.1667 160.833,26.8333 167.5,27.5C 167.5,28.5 167.5,29.5 167.5,30.5C 160.833,31.1667 160.833,31.8333 167.5,32.5C 167.5,33.5 167.5,34.5 167.5,35.5C 164.833,35.5 162.167,35.5 159.5,35.5C 159.5,31.1667 159.5,26.8333 159.5,22.5 Z"/></g>
<g><path style="opacity:0.837" fill="#000000" d="M 169.5,22.5 C 172.167,22.5 174.833,22.5 177.5,22.5C 177.5,23.5 177.5,24.5 177.5,25.5C 175.712,25.2148 174.045,25.5481 172.5,26.5C 178.022,26.5988 179.856,29.2655 178,34.5C 175.281,35.4438 172.448,35.7771 169.5,35.5C 169.5,31.1667 169.5,26.8333 169.5,22.5 Z M 172.5,29.5 C 176.094,30.5615 176.26,31.8948 173,33.5C 172.51,32.2068 172.343,30.8734 172.5,29.5 Z"/></g>
<g><path style="opacity:0.837" fill="#000000" d="M 180.5,22.5 C 183.167,22.5 185.833,22.5 188.5,22.5C 188.5,23.5 188.5,24.5 188.5,25.5C 181.833,26.1667 181.833,26.8333 188.5,27.5C 188.5,28.5 188.5,29.5 188.5,30.5C 186.712,30.2148 185.045,30.5481 183.5,31.5C 185.833,32.8333 188.167,32.8333 190.5,31.5C 191.407,28.5788 191.74,25.5788 191.5,22.5C 194.167,22.5 196.833,22.5 199.5,22.5C 199.5,26.8333 199.5,31.1667 199.5,35.5C 198.5,35.5 197.5,35.5 196.5,35.5C 196.82,32.1016 196.487,28.7683 195.5,25.5C 194.911,28.8369 193.911,32.0035 192.5,35C 188.69,35.127 184.69,35.2936 180.5,35.5C 180.5,31.1667 180.5,26.8333 180.5,22.5 Z"/></g>
<g><path style="opacity:0.813" fill="#000000" d="M 201.5,22.5 C 202.5,22.5 203.5,22.5 204.5,22.5C 204.082,29.8605 205.082,30.1939 207.5,23.5C 208.689,22.5713 210.022,22.238 211.5,22.5C 211.5,26.8333 211.5,31.1667 211.5,35.5C 210.5,35.5 209.5,35.5 208.5,35.5C 208.899,29.3588 207.899,29.0254 205.5,34.5C 204.311,35.4287 202.978,35.762 201.5,35.5C 201.5,31.1667 201.5,26.8333 201.5,22.5 Z"/></g>
<g><path style="opacity:0.383" fill="#76787d" d="M 57.5,24.5 C 54.9134,25.8164 51.9134,26.483 48.5,26.5C 45.3138,26.498 42.3138,26.1647 39.5,25.5C 45.5907,25.7886 51.5907,25.4553 57.5,24.5 Z"/></g>
<g><path style="opacity:0.384" fill="#7b7d81" d="M 60.5,24.5 C 66.0748,25.4524 71.7414,25.7857 77.5,25.5C 77.5,25.8333 77.5,26.1667 77.5,26.5C 71.4018,27.1167 65.7351,26.45 60.5,24.5 Z"/></g>
<g><path style="opacity:0.597" fill="#010102" d="M 33.5,34.5 C 50.1667,34.5 66.8333,34.5 83.5,34.5C 83.2852,36.1788 83.9519,37.1788 85.5,37.5C 85.5,37.8333 85.5,38.1667 85.5,38.5C 67.5,38.5 49.5,38.5 31.5,38.5C 31.5,38.1667 31.5,37.8333 31.5,37.5C 33.0481,37.1788 33.7148,36.1788 33.5,34.5 Z"/></g>
</svg>
