<?xml version="1.0" encoding="UTF-8"?>
<!DOCTYPE svg PUBLIC "-//W3C//DTD SVG 1.1//EN" "http://www.w3.org/Graphics/SVG/1.1/DTD/svg11.dtd">
<svg xmlns="http://www.w3.org/2000/svg" version="1.1" width="129px" height="21px" style="shape-rendering:geometricPrecision; text-rendering:geometricPrecision; image-rendering:optimizeQuality; fill-rule:evenodd; clip-rule:evenodd" xmlns:xlink="http://www.w3.org/1999/xlink">
<g><path style="opacity:0.007" fill="#fefffe" d="M 44.5,1.5 C 45.6009,0.401682 46.9343,0.235015 48.5,1C 47.2068,1.49001 45.8734,1.65668 44.5,1.5 Z"/></g>
<g><path style="opacity:0.697" fill="#000000" d="M 55.5,3.5 C 60.0331,3.95348 64.5331,3.95348 69,3.5C 69.9454,3.90536 70.6121,4.57203 71,5.5C 71.7096,4.02674 72.8762,3.36007 74.5,3.5C 74.5,5.5 74.5,7.5 74.5,9.5C 71.8806,9.76834 69.3806,9.435 67,8.5C 64.6332,9.04715 62.4666,10.0471 60.5,11.5C 58.8333,8.83333 57.1667,8.83333 55.5,11.5C 54.795,8.91099 54.795,6.24432 55.5,3.5 Z"/></g>
<g><path style="opacity:0.748" fill="#000000" d="M 75.5,11.5 C 77.1238,11.3601 78.2904,12.0267 79,13.5C 79.7096,12.0267 80.8762,11.3601 82.5,11.5C 82.5,13.5 82.5,15.5 82.5,17.5C 80.1667,17.5 77.8333,17.5 75.5,17.5C 75.5,15.5 75.5,13.5 75.5,11.5 Z"/></g>
<g><path style="opacity:0.758" fill="#000000" d="M 83.5,11.5 C 84.8333,11.5 86.1667,11.5 87.5,11.5C 87.8333,18.1667 88.1667,18.1667 88.5,11.5C 91.5,11.5 94.5,11.5 97.5,11.5C 97.8333,16.8333 98.1667,16.8333 98.5,11.5C 101.394,11.0423 103.894,11.709 106,13.5C 106.689,12.6433 107.522,11.9767 108.5,11.5C 109.833,13.5 109.833,15.5 108.5,17.5C 106.345,17.162 104.011,17.162 101.5,17.5C 101.167,12.1667 100.833,12.1667 100.5,17.5C 94.8333,17.5 89.1667,17.5 83.5,17.5C 83.5,15.5 83.5,13.5 83.5,11.5 Z"/></g>
<g><path style="opacity:0.414" fill="#0b0b0c" d="M 33.5,2.5 C 33.1667,3.16667 32.8333,3.83333 32.5,4.5C 29.8333,4.5 27.1667,4.5 24.5,4.5C 24.5,7.16667 24.5,9.83333 24.5,12.5C 24.1583,13.3382 23.4916,13.6716 22.5,13.5C 22.6567,12.1266 22.49,10.7932 22,9.5C 21.5034,11.8098 21.3367,14.1432 21.5,16.5C 29.9032,17.1335 37.9032,16.4668 45.5,14.5C 44.8333,13.8333 44.1667,13.1667 43.5,12.5C 43.5,9.83333 43.5,7.16667 43.5,4.5C 40.8333,4.5 38.1667,4.5 35.5,4.5C 35.1667,3.83333 34.8333,3.16667 34.5,2.5C 37.6248,1.52056 40.9581,1.18723 44.5,1.5C 44.8424,4.27914 46.0091,6.61247 48,8.5C 48.8236,11.8823 48.657,15.2156 47.5,18.5C 38.5542,19.4722 29.5542,19.8056 20.5,19.5C 19.4113,15.9221 19.2446,12.2554 20,8.5C 21.8706,7.00271 22.8706,5.00271 23,2.5C 25.267,1.71079 27.6003,1.04412 30,0.5C 31.4595,0.808222 32.6261,1.47489 33.5,2.5 Z M 22.5,13.5 C 29.9818,14.492 37.6484,14.8254 45.5,14.5C 37.9032,16.4668 29.9032,17.1335 21.5,16.5C 21.3367,14.1432 21.5034,11.8098 22,9.5C 22.49,10.7932 22.6567,12.1266 22.5,13.5 Z M 35.5,4.5 C 38.1667,4.5 40.8333,4.5 43.5,4.5C 43.5,7.16667 43.5,9.83333 43.5,12.5C 40.8333,12.5 38.1667,12.5 35.5,12.5C 35.5,9.83333 35.5,7.16667 35.5,4.5 Z M 32.5,4.5 C 32.5,7.16667 32.5,9.83333 32.5,12.5C 29.8333,12.5 27.1667,12.5 24.5,12.5C 24.5,9.83333 24.5,7.16667 24.5,4.5C 27.1667,4.5 29.8333,4.5 32.5,4.5 Z"/></g>
<g><path style="opacity:0.416" fill="#65676b" d="M 33.5,2.5 C 33.8333,2.5 34.1667,2.5 34.5,2.5C 34.8333,3.16667 35.1667,3.83333 35.5,4.5C 35.5,7.16667 35.5,9.83333 35.5,12.5C 38.1667,12.5 40.8333,12.5 43.5,12.5C 44.1667,13.1667 44.8333,13.8333 45.5,14.5C 37.6484,14.8254 29.9818,14.492 22.5,13.5C 23.4916,13.6716 24.1583,13.3382 24.5,12.5C 27.1667,12.5 29.8333,12.5 32.5,12.5C 32.5,9.83333 32.5,7.16667 32.5,4.5C 32.8333,3.83333 33.1667,3.16667 33.5,2.5 Z"/></g>
<g><path style="opacity:0.004" fill="#f0f1f0" d="M 20.5,19.5 C 20.5,19.8333 20.5,20.1667 20.5,20.5C 19.8299,20.0187 19.8299,19.6853 20.5,19.5 Z"/></g>
<g><path style="opacity:0.008" fill="#fefffe" d="M 47.5,20.5 C 48.5,19.1667 49.5,19.1667 50.5,20.5C 49.5,20.5 48.5,20.5 47.5,20.5 Z"/></g>
</svg>
