<?xml version="1.0" encoding="UTF-8"?>
<!DOCTYPE svg PUBLIC "-//W3C//DTD SVG 1.1//EN" "http://www.w3.org/Graphics/SVG/1.1/DTD/svg11.dtd">
<svg xmlns="http://www.w3.org/2000/svg" version="1.1" width="325px" height="325px" style="shape-rendering:geometricPrecision; text-rendering:geometricPrecision; image-rendering:optimizeQuality; fill-rule:evenodd; clip-rule:evenodd" xmlns:xlink="http://www.w3.org/1999/xlink">
<g><path style="opacity:0.997" fill="#343943" d="M 291.5,242.5 C 203.189,243.49 114.855,243.823 26.5,243.5C 25.391,243.443 24.391,243.11 23.5,242.5C 23.0269,241.094 22.0269,240.427 20.5,240.5C 17.4445,238.737 15.6111,236.07 15,232.5C 14.3333,204.5 14.3333,176.5 15,148.5C 16.6891,143.475 19.8558,139.641 24.5,137C 31.0764,135.623 37.7431,135.123 44.5,135.5C 44.3334,120.83 44.5001,106.163 45,91.5C 48.5736,81.2603 55.7403,75.427 66.5,74C 92.1667,73.3333 117.833,73.3333 143.5,74C 150.182,74.5908 155.682,77.4242 160,82.5C 164.318,77.4242 169.818,74.5908 176.5,74C 204.202,73.0524 231.868,73.3858 259.5,75C 267.428,77.9269 272.594,83.4269 275,91.5C 275.5,106.163 275.667,120.83 275.5,135.5C 284.36,133.742 291.86,136.076 298,142.5C 299.275,144.717 300.275,147.051 301,149.5C 301.667,176.833 301.667,204.167 301,231.5C 300.093,237.233 296.927,240.899 291.5,242.5 Z M 167.5,90.5 C 169.525,88.8036 171.525,87.137 173.5,85.5C 200.137,84.3599 226.803,84.1932 253.5,85C 257.491,85.4123 260.658,87.2456 263,90.5C 264.65,119.08 264.983,147.747 264,176.5C 262.01,180.49 258.843,182.99 254.5,184C 228.167,184.667 201.833,184.667 175.5,184C 170.333,182.833 167.167,179.667 166,174.5C 165.333,147.833 165.333,121.167 166,94.5C 166.791,93.255 167.291,91.9217 167.5,90.5 Z M 66.5,84.5 C 92.1688,84.3334 117.835,84.5 143.5,85C 147.468,85.9643 150.635,88.1309 153,91.5C 154.641,119.438 154.975,147.438 154,175.5C 152.402,180.099 149.235,182.932 144.5,184C 118.167,184.667 91.8333,184.667 65.5,184C 61.9338,183.3 59.1005,181.467 57,178.5C 55.3505,150.253 55.0171,121.92 56,93.5C 58.1029,88.7217 61.6029,85.7217 66.5,84.5 Z M 29.5,146.5 C 34.5,146.5 39.5,146.5 44.5,146.5C 44.3334,161.837 44.5001,177.17 45,192.5C 45.8333,193.333 46.6667,194.167 47.5,195C 122.5,195.667 197.5,195.667 272.5,195C 273.667,194.5 274.5,193.667 275,192.5C 275.5,177.17 275.667,161.837 275.5,146.5C 279.182,146.335 282.848,146.501 286.5,147C 288.259,148.008 289.426,149.508 290,151.5C 290.667,177.5 290.667,203.5 290,229.5C 289.535,230.931 288.701,232.097 287.5,233C 201.167,233.667 114.833,233.667 28.5,233C 27.6667,232.167 26.8333,231.333 26,230.5C 25.3333,203.833 25.3333,177.167 26,150.5C 27.0319,148.973 28.1986,147.64 29.5,146.5 Z"/></g>
<g><path style="opacity:0.694" fill="#575a5f" d="M 173.5,85.5 C 171.525,87.137 169.525,88.8036 167.5,90.5C 167.389,89.8826 167.056,89.3826 166.5,89C 167.859,87.7955 168.859,86.2955 169.5,84.5C 170.736,85.2458 172.07,85.5792 173.5,85.5 Z"/></g>
<g><path style="opacity:1" fill="#272e3a" d="M 18.5,151.5 C 20.1123,152.452 21.6123,152.786 23,152.5C 23.3333,179.167 23.6667,205.833 24,232.5C 24.2453,234.663 25.2453,236.33 27,237.5C 27.414,237.043 27.914,236.709 28.5,236.5C 28.4895,237.441 28.9895,238.108 30,238.5C 32.1351,237.873 34.3018,237.373 36.5,237C 117.833,236.333 199.167,236.333 280.5,237C 283.124,237.576 283.791,238.91 282.5,241C 283.167,241.333 283.833,241.667 284.5,242C 199.5,242.667 114.5,242.667 29.5,242C 30.6537,241.086 30.487,240.253 29,239.5C 28.5488,241.929 27.7155,242.096 26.5,240C 26.8333,239.667 27.1667,239.333 27.5,239C 23.7278,240.101 21.3944,238.601 20.5,234.5C 19.2519,233.96 18.0852,233.293 17,232.5C 16.8333,219.167 16.6667,205.833 16.5,192.5C 16.5177,178.611 17.1843,164.945 18.5,151.5 Z"/></g>
<g><path style="opacity:0.4" fill="#8b8e93" d="M 20.5,240.5 C 22.0269,240.427 23.0269,241.094 23.5,242.5C 21.9731,242.573 20.9731,241.906 20.5,240.5 Z"/></g>
<g><path style="opacity:0.584" fill="#5c6167" d="M 291.5,242.5 C 291.082,243.222 290.416,243.722 289.5,244C 201.666,244.832 113.999,244.666 26.5,243.5C 114.855,243.823 203.189,243.49 291.5,242.5 Z"/></g>
</svg>
